# xmcd
#
# Track frame offsets:
#	150
#	23374
#	39816
#	62979
#	83163
#	99986
#	112539
#	130432
#	156452
#	175421
#	198524
#	210828
#	219533
#	227150
#	242790
#	247035
#	265357
#	276537
#	288204
#	307785
#
# Disc length: 4673 seconds
#
# Revision: 1
# Processed by: cddbd v1.5.2PL0 Copyright (c) Steve Scherf et al.
# Submitted via: audiograbber 1.83.01
#
DISCID=15123f14
DTITLE=Various Artist - Angola Prisoner's Blues
DYEAR=1996
DGENRE=Blues
TTITLE0=Prisoner's Talking Blues
TTITLE1=Stagolee
TTITLE2=Electric Chair Blues
TTITLE3=Black Night is Fallin'
TTITLE4=Some Got Six Months
TTITLE5=I'm Gonna Leave You Mama
TTITLE6=I'm Lonesome Blues
TTITLE7=Angola Bound
TTITLE8=Worried Blues
TTITLE9=Josephine
TTITLE10=Soldier's Plea
TTITLE11=The Moon is Rising
TTITLE12=I'm Still in Love With You
TTITLE13=I Miss You So
TTITLE14=Hello, Sue
TTITLE15=Fast Life Woman
TTITLE16=Careless Love
TTITLE17=Have You Ever Heard the Church Bells Tone
TTITLE18=61 Highway
TTITLE19=Strike at Camp 1
EXTD=Arhoolie CD 419
EXTT0=Robert Pete Williams
EXTT1=Hogman Maxey
EXTT2=Guitar Welch
EXTT3=Hogman Maxey
EXTT4=Robert Pete Williams
EXTT5=Guitar Welch
EXTT6=Robert Pete Williams
EXTT7=A Capella Group
EXTT8=Hogman Maxey
EXTT9=Guitar Welch
EXTT10=Clara Young
EXTT11=Odea Matthews
EXTT12=Thelma Mae Joseph
EXTT13=Vocal Group
EXTT14=Butterbeans
EXTT15=Hogman Maxey
EXTT16=Otis Webster
EXTT17=Roosevelt Charles (Vocal]\nOtis Webster (Guitar)
EXTT18=Guitar Welch
EXTT19=Roosevelt Charles
PLAYORDER=
